<mxfile host="app.diagrams.net" agent="Mozilla/5.0 (Windows NT 10.0; Win64; x64) AppleWebKit/537.36 (KHTML, like Gecko) Chrome/133.0.0.0 Safari/537.36" version="26.0.14">
  <diagram name="Page-1" id="LxWSnYf0EXf-JvPif-XB">
    <mxGraphModel dx="2004" dy="1098" grid="0" gridSize="10" guides="1" tooltips="1" connect="1" arrows="1" fold="1" page="1" pageScale="1" pageWidth="1169" pageHeight="827" math="0" shadow="0">
      <root>
        <mxCell id="0" />
        <mxCell id="1" parent="0" />
        <mxCell id="tkLdJMVutP-1dgIdCrf8-5" value="" style="rounded=0;whiteSpace=wrap;html=1;fillColor=#f5f5f5;strokeColor=#666666;fontColor=#333333;" parent="1" vertex="1">
          <mxGeometry x="7" y="5" width="1007" height="646" as="geometry" />
        </mxCell>
        <mxCell id="PNLWlgx4YQinQecf2bti-5" value="" style="rounded=0;whiteSpace=wrap;html=1;fillColor=#dae8fc;strokeColor=#6c8ebf;" parent="1" vertex="1">
          <mxGeometry x="560" y="68" width="257" height="521" as="geometry" />
        </mxCell>
        <mxCell id="PNLWlgx4YQinQecf2bti-4" value="" style="rounded=0;whiteSpace=wrap;html=1;fillColor=#dae8fc;strokeColor=#6c8ebf;" parent="1" vertex="1">
          <mxGeometry x="36" y="68" width="149" height="370" as="geometry" />
        </mxCell>
        <mxCell id="7do6RsEbsn7JwfB-bVch-1" value="daas_db" style="image;aspect=fixed;html=1;points=[];align=center;fontSize=12;image=img/lib/azure2/databases/Azure_Database_PostgreSQL_Server.svg;" parent="1" vertex="1">
          <mxGeometry x="332" y="326" width="48" height="64" as="geometry" />
        </mxCell>
        <mxCell id="7do6RsEbsn7JwfB-bVch-2" value="SOLR" style="outlineConnect=0;dashed=0;verticalLabelPosition=bottom;verticalAlign=top;align=center;html=1;shape=mxgraph.aws3.cache_node;fillColor=#2E73B8;gradientColor=none;" parent="1" vertex="1">
          <mxGeometry x="326" y="196" width="60" height="63" as="geometry" />
        </mxCell>
        <mxCell id="7do6RsEbsn7JwfB-bVch-3" value="daas_py_api (facility)" style="aspect=fixed;sketch=0;html=1;dashed=0;whitespace=wrap;verticalLabelPosition=bottom;verticalAlign=top;fillColor=#2875E2;strokeColor=#ffffff;points=[[0.005,0.63,0],[0.1,0.2,0],[0.9,0.2,0],[0.5,0,0],[0.995,0.63,0],[0.72,0.99,0],[0.5,1,0],[0.28,0.99,0]];shape=mxgraph.kubernetes.icon2;kubernetesLabel=1;prIcon=api" parent="1" vertex="1">
          <mxGeometry x="612" y="144" width="50" height="48" as="geometry" />
        </mxCell>
        <mxCell id="Nkm34f7J-GyClLQroTZa-2" value="Jenkins" style="edgeStyle=orthogonalEdgeStyle;rounded=0;orthogonalLoop=1;jettySize=auto;html=1;exitX=1;exitY=0.75;exitDx=0;exitDy=0;curved=1;entryX=0.002;entryY=0.919;entryDx=0;entryDy=0;entryPerimeter=0;" parent="1" source="7do6RsEbsn7JwfB-bVch-4" target="PNLWlgx4YQinQecf2bti-5" edge="1">
          <mxGeometry relative="1" as="geometry">
            <mxPoint x="397" y="454" as="targetPoint" />
          </mxGeometry>
        </mxCell>
        <mxCell id="PNLWlgx4YQinQecf2bti-7" value="Jenkins" style="edgeStyle=orthogonalEdgeStyle;curved=1;rounded=0;orthogonalLoop=1;jettySize=auto;html=1;exitX=0.5;exitY=0;exitDx=0;exitDy=0;entryX=0.5;entryY=1;entryDx=0;entryDy=0;" parent="1" source="7do6RsEbsn7JwfB-bVch-4" target="PNLWlgx4YQinQecf2bti-4" edge="1">
          <mxGeometry relative="1" as="geometry" />
        </mxCell>
        <mxCell id="7do6RsEbsn7JwfB-bVch-4" value="CICD" style="shape=image;html=1;verticalAlign=top;verticalLabelPosition=bottom;labelBackgroundColor=#ffffff;imageAspect=0;aspect=fixed;image=https://cdn1.iconfinder.com/data/icons/KDE_Crystal_Diamond_2.5_Classical_Mod/128x128/apps/kcmsystem.png" parent="1" vertex="1">
          <mxGeometry x="77" y="534" width="78" height="78" as="geometry" />
        </mxCell>
        <mxCell id="-R0GGlqBCAgXGfYGxqEZ-6" style="edgeStyle=orthogonalEdgeStyle;curved=1;rounded=0;orthogonalLoop=1;jettySize=auto;html=1;exitX=0.995;exitY=0.63;exitDx=0;exitDy=0;exitPerimeter=0;entryX=0;entryY=0.5;entryDx=0;entryDy=0;" parent="1" source="7do6RsEbsn7JwfB-bVch-5" target="-R0GGlqBCAgXGfYGxqEZ-5" edge="1">
          <mxGeometry relative="1" as="geometry" />
        </mxCell>
        <mxCell id="7do6RsEbsn7JwfB-bVch-5" value="daas_py_idx (facility)" style="aspect=fixed;sketch=0;html=1;dashed=0;whitespace=wrap;verticalLabelPosition=bottom;verticalAlign=top;fillColor=#2875E2;strokeColor=#ffffff;points=[[0.005,0.63,0],[0.1,0.2,0],[0.9,0.2,0],[0.5,0,0],[0.995,0.63,0],[0.72,0.99,0],[0.5,1,0],[0.28,0.99,0]];shape=mxgraph.kubernetes.icon2;prIcon=cronjob" parent="1" vertex="1">
          <mxGeometry x="77" y="181" width="50" height="48" as="geometry" />
        </mxCell>
        <mxCell id="7do6RsEbsn7JwfB-bVch-10" style="edgeStyle=orthogonalEdgeStyle;rounded=0;orthogonalLoop=1;jettySize=auto;html=1;exitX=0.005;exitY=0.63;exitDx=0;exitDy=0;exitPerimeter=0;entryX=1;entryY=0.5;entryDx=0;entryDy=0;curved=1;startArrow=classic;startFill=1;" parent="1" source="7do6RsEbsn7JwfB-bVch-7" target="7do6RsEbsn7JwfB-bVch-11" edge="1">
          <mxGeometry relative="1" as="geometry">
            <mxPoint x="434" y="178" as="targetPoint" />
          </mxGeometry>
        </mxCell>
        <mxCell id="7do6RsEbsn7JwfB-bVch-7" value="daas_py_api (asset)" style="aspect=fixed;sketch=0;html=1;dashed=0;whitespace=wrap;verticalLabelPosition=bottom;verticalAlign=top;fillColor=#2875E2;strokeColor=#ffffff;points=[[0.005,0.63,0],[0.1,0.2,0],[0.9,0.2,0],[0.5,0,0],[0.995,0.63,0],[0.72,0.99,0],[0.5,1,0],[0.28,0.99,0]];shape=mxgraph.kubernetes.icon2;kubernetesLabel=1;prIcon=api" parent="1" vertex="1">
          <mxGeometry x="612" y="213" width="50" height="48" as="geometry" />
        </mxCell>
        <mxCell id="7do6RsEbsn7JwfB-bVch-8" value="" style="edgeStyle=orthogonalEdgeStyle;rounded=0;orthogonalLoop=1;jettySize=auto;html=1;exitX=0.5;exitY=0;exitDx=0;exitDy=0;entryX=0;entryY=0.5;entryDx=0;entryDy=0;entryPerimeter=0;curved=1;" parent="1" source="-R0GGlqBCAgXGfYGxqEZ-5" target="7do6RsEbsn7JwfB-bVch-2" edge="1">
          <mxGeometry relative="1" as="geometry" />
        </mxCell>
        <mxCell id="7do6RsEbsn7JwfB-bVch-9" style="edgeStyle=orthogonalEdgeStyle;rounded=0;orthogonalLoop=1;jettySize=auto;html=1;exitX=0.005;exitY=0.63;exitDx=0;exitDy=0;exitPerimeter=0;entryX=1;entryY=0.5;entryDx=0;entryDy=0;curved=1;startArrow=classic;startFill=1;" parent="1" source="7do6RsEbsn7JwfB-bVch-3" target="7do6RsEbsn7JwfB-bVch-11" edge="1">
          <mxGeometry relative="1" as="geometry" />
        </mxCell>
        <mxCell id="7do6RsEbsn7JwfB-bVch-11" value="" style="ellipse;whiteSpace=wrap;html=1;aspect=fixed;fillColor=#dae8fc;strokeColor=#6c8ebf;" parent="1" vertex="1">
          <mxGeometry x="485" y="272" width="30" height="30" as="geometry" />
        </mxCell>
        <mxCell id="7do6RsEbsn7JwfB-bVch-12" style="edgeStyle=orthogonalEdgeStyle;rounded=0;orthogonalLoop=1;jettySize=auto;html=1;entryX=1;entryY=0.5;entryDx=0;entryDy=0;entryPerimeter=0;curved=1;startArrow=classic;startFill=1;" parent="1" source="7do6RsEbsn7JwfB-bVch-11" target="7do6RsEbsn7JwfB-bVch-2" edge="1">
          <mxGeometry relative="1" as="geometry" />
        </mxCell>
        <mxCell id="7do6RsEbsn7JwfB-bVch-13" value="NOTIFY" style="edgeStyle=orthogonalEdgeStyle;rounded=0;orthogonalLoop=1;jettySize=auto;html=1;exitX=0;exitY=0.5;exitDx=0;exitDy=0;entryX=0.987;entryY=0.517;entryDx=0;entryDy=0;entryPerimeter=0;curved=1;startArrow=classic;startFill=1;" parent="1" source="7do6RsEbsn7JwfB-bVch-11" target="7do6RsEbsn7JwfB-bVch-1" edge="1">
          <mxGeometry relative="1" as="geometry" />
        </mxCell>
        <mxCell id="7do6RsEbsn7JwfB-bVch-14" value="LISTENER" style="edgeStyle=orthogonalEdgeStyle;rounded=0;orthogonalLoop=1;jettySize=auto;html=1;exitX=0.5;exitY=1;exitDx=0;exitDy=0;curved=1;entryX=-0.021;entryY=0.44;entryDx=0;entryDy=0;entryPerimeter=0;startArrow=classic;startFill=1;endArrow=none;" parent="1" source="-R0GGlqBCAgXGfYGxqEZ-5" target="7do6RsEbsn7JwfB-bVch-1" edge="1">
          <mxGeometry relative="1" as="geometry">
            <mxPoint x="331" y="346" as="targetPoint" />
          </mxGeometry>
        </mxCell>
        <mxCell id="7do6RsEbsn7JwfB-bVch-15" value="Liquibase" style="edgeStyle=orthogonalEdgeStyle;rounded=0;orthogonalLoop=1;jettySize=auto;html=1;entryX=0.019;entryY=0.678;entryDx=0;entryDy=0;entryPerimeter=0;curved=1;" parent="1" source="7do6RsEbsn7JwfB-bVch-4" target="7do6RsEbsn7JwfB-bVch-1" edge="1">
          <mxGeometry relative="1" as="geometry" />
        </mxCell>
        <mxCell id="-R0GGlqBCAgXGfYGxqEZ-9" style="edgeStyle=orthogonalEdgeStyle;curved=1;rounded=0;orthogonalLoop=1;jettySize=auto;html=1;exitX=0.005;exitY=0.63;exitDx=0;exitDy=0;exitPerimeter=0;entryX=0.5;entryY=1;entryDx=0;entryDy=0;startArrow=classic;startFill=1;endArrow=classic;endFill=1;" parent="1" source="-R0GGlqBCAgXGfYGxqEZ-1" target="7do6RsEbsn7JwfB-bVch-11" edge="1">
          <mxGeometry relative="1" as="geometry">
            <mxPoint x="520" y="247" as="targetPoint" />
          </mxGeometry>
        </mxCell>
        <mxCell id="-R0GGlqBCAgXGfYGxqEZ-1" value="daas_py_api (service)" style="aspect=fixed;sketch=0;html=1;dashed=0;whitespace=wrap;verticalLabelPosition=bottom;verticalAlign=top;fillColor=#2875E2;strokeColor=#ffffff;points=[[0.005,0.63,0],[0.1,0.2,0],[0.9,0.2,0],[0.5,0,0],[0.995,0.63,0],[0.72,0.99,0],[0.5,1,0],[0.28,0.99,0]];shape=mxgraph.kubernetes.icon2;kubernetesLabel=1;prIcon=api" parent="1" vertex="1">
          <mxGeometry x="612" y="283" width="50" height="48" as="geometry" />
        </mxCell>
        <mxCell id="-R0GGlqBCAgXGfYGxqEZ-7" style="edgeStyle=orthogonalEdgeStyle;curved=1;rounded=0;orthogonalLoop=1;jettySize=auto;html=1;exitX=0.995;exitY=0.63;exitDx=0;exitDy=0;exitPerimeter=0;entryX=0;entryY=0.5;entryDx=0;entryDy=0;" parent="1" source="-R0GGlqBCAgXGfYGxqEZ-3" target="-R0GGlqBCAgXGfYGxqEZ-5" edge="1">
          <mxGeometry relative="1" as="geometry" />
        </mxCell>
        <mxCell id="-R0GGlqBCAgXGfYGxqEZ-3" value="daas_py_idx (asset)" style="aspect=fixed;sketch=0;html=1;dashed=0;whitespace=wrap;verticalLabelPosition=bottom;verticalAlign=top;fillColor=#2875E2;strokeColor=#ffffff;points=[[0.005,0.63,0],[0.1,0.2,0],[0.9,0.2,0],[0.5,0,0],[0.995,0.63,0],[0.72,0.99,0],[0.5,1,0],[0.28,0.99,0]];shape=mxgraph.kubernetes.icon2;prIcon=cronjob" parent="1" vertex="1">
          <mxGeometry x="77" y="256" width="50" height="48" as="geometry" />
        </mxCell>
        <mxCell id="-R0GGlqBCAgXGfYGxqEZ-8" style="edgeStyle=orthogonalEdgeStyle;curved=1;rounded=0;orthogonalLoop=1;jettySize=auto;html=1;exitX=0.995;exitY=0.63;exitDx=0;exitDy=0;exitPerimeter=0;entryX=0;entryY=0.5;entryDx=0;entryDy=0;" parent="1" source="-R0GGlqBCAgXGfYGxqEZ-4" target="-R0GGlqBCAgXGfYGxqEZ-5" edge="1">
          <mxGeometry relative="1" as="geometry" />
        </mxCell>
        <mxCell id="-R0GGlqBCAgXGfYGxqEZ-4" value="daas_py_idx (service)" style="aspect=fixed;sketch=0;html=1;dashed=0;whitespace=wrap;verticalLabelPosition=bottom;verticalAlign=top;fillColor=#2875E2;strokeColor=#ffffff;points=[[0.005,0.63,0],[0.1,0.2,0],[0.9,0.2,0],[0.5,0,0],[0.995,0.63,0],[0.72,0.99,0],[0.5,1,0],[0.28,0.99,0]];shape=mxgraph.kubernetes.icon2;prIcon=cronjob" parent="1" vertex="1">
          <mxGeometry x="77" y="329" width="50" height="48" as="geometry" />
        </mxCell>
        <mxCell id="-R0GGlqBCAgXGfYGxqEZ-5" value="" style="ellipse;whiteSpace=wrap;html=1;aspect=fixed;fillColor=#dae8fc;strokeColor=#6c8ebf;" parent="1" vertex="1">
          <mxGeometry x="198" y="272" width="30" height="30" as="geometry" />
        </mxCell>
        <mxCell id="Nkm34f7J-GyClLQroTZa-1" value="daas_py_auth" style="aspect=fixed;sketch=0;html=1;dashed=0;whitespace=wrap;verticalLabelPosition=bottom;verticalAlign=top;fillColor=#2875E2;strokeColor=#ffffff;points=[[0.005,0.63,0],[0.1,0.2,0],[0.9,0.2,0],[0.5,0,0],[0.995,0.63,0],[0.72,0.99,0],[0.5,1,0],[0.28,0.99,0]];shape=mxgraph.kubernetes.icon2;kubernetesLabel=1;prIcon=api" parent="1" vertex="1">
          <mxGeometry x="741" y="509" width="50" height="48" as="geometry" />
        </mxCell>
        <mxCell id="Nkm34f7J-GyClLQroTZa-4" value="" style="image;sketch=0;aspect=fixed;html=1;points=[];align=center;fontSize=12;image=img/lib/mscae/Docker.svg;" parent="1" vertex="1">
          <mxGeometry x="662" y="17" width="50" height="41" as="geometry" />
        </mxCell>
        <mxCell id="Nkm34f7J-GyClLQroTZa-7" value="#2 Authorize" style="edgeStyle=entityRelationEdgeStyle;rounded=0;orthogonalLoop=1;jettySize=auto;html=1;exitX=0.28;exitY=0.236;exitDx=0;exitDy=0;exitPerimeter=0;" parent="1" source="rkZaWcdLS_Vwg1QnGu6E-1" target="7do6RsEbsn7JwfB-bVch-7" edge="1">
          <mxGeometry x="-0.4835" y="7" relative="1" as="geometry">
            <mxPoint y="1" as="offset" />
          </mxGeometry>
        </mxCell>
        <mxCell id="Nkm34f7J-GyClLQroTZa-5" value="" style="image;aspect=fixed;perimeter=ellipsePerimeter;html=1;align=center;shadow=0;dashed=0;spacingTop=3;image=img/lib/active_directory/user.svg;" parent="1" vertex="1">
          <mxGeometry x="1072" y="241" width="47.36" height="128" as="geometry" />
        </mxCell>
        <mxCell id="Nkm34f7J-GyClLQroTZa-9" value="#1 Authenticate" style="edgeStyle=orthogonalEdgeStyle;rounded=0;orthogonalLoop=1;jettySize=auto;html=1;exitX=0.107;exitY=0.431;exitDx=0;exitDy=0;entryX=0.995;entryY=0.63;entryDx=0;entryDy=0;entryPerimeter=0;curved=1;exitPerimeter=0;" parent="1" source="rkZaWcdLS_Vwg1QnGu6E-1" target="Nkm34f7J-GyClLQroTZa-1" edge="1">
          <mxGeometry relative="1" as="geometry" />
        </mxCell>
        <mxCell id="Nkm34f7J-GyClLQroTZa-10" style="edgeStyle=orthogonalEdgeStyle;rounded=0;orthogonalLoop=1;jettySize=auto;html=1;exitX=0.005;exitY=0.63;exitDx=0;exitDy=0;exitPerimeter=0;entryX=0.985;entryY=0.792;entryDx=0;entryDy=0;entryPerimeter=0;curved=1;" parent="1" source="Nkm34f7J-GyClLQroTZa-1" target="7do6RsEbsn7JwfB-bVch-1" edge="1">
          <mxGeometry relative="1" as="geometry">
            <Array as="points">
              <mxPoint x="523" y="539" />
              <mxPoint x="523" y="377" />
            </Array>
          </mxGeometry>
        </mxCell>
        <mxCell id="PNLWlgx4YQinQecf2bti-1" value="" style="image;sketch=0;aspect=fixed;html=1;points=[];align=center;fontSize=12;image=img/lib/mscae/Docker.svg;" parent="1" vertex="1">
          <mxGeometry x="79" y="21" width="50" height="41" as="geometry" />
        </mxCell>
        <mxCell id="PNLWlgx4YQinQecf2bti-2" value="daas_py_idx (account)" style="aspect=fixed;sketch=0;html=1;dashed=0;whitespace=wrap;verticalLabelPosition=bottom;verticalAlign=top;fillColor=#2875E2;strokeColor=#ffffff;points=[[0.005,0.63,0],[0.1,0.2,0],[0.9,0.2,0],[0.5,0,0],[0.995,0.63,0],[0.72,0.99,0],[0.5,1,0],[0.28,0.99,0]];shape=mxgraph.kubernetes.icon2;prIcon=cronjob" parent="1" vertex="1">
          <mxGeometry x="77" y="91" width="50" height="48" as="geometry" />
        </mxCell>
        <mxCell id="PNLWlgx4YQinQecf2bti-9" style="edgeStyle=orthogonalEdgeStyle;curved=1;rounded=0;orthogonalLoop=1;jettySize=auto;html=1;exitX=0.005;exitY=0.63;exitDx=0;exitDy=0;exitPerimeter=0;entryX=1;entryY=0.5;entryDx=0;entryDy=0;startArrow=classic;startFill=1;endArrow=classic;endFill=1;" parent="1" source="PNLWlgx4YQinQecf2bti-3" target="7do6RsEbsn7JwfB-bVch-11" edge="1">
          <mxGeometry relative="1" as="geometry" />
        </mxCell>
        <mxCell id="PNLWlgx4YQinQecf2bti-3" value="daas_py_api (account)" style="aspect=fixed;sketch=0;html=1;dashed=0;whitespace=wrap;verticalLabelPosition=bottom;verticalAlign=top;fillColor=#2875E2;strokeColor=#ffffff;points=[[0.005,0.63,0],[0.1,0.2,0],[0.9,0.2,0],[0.5,0,0],[0.995,0.63,0],[0.72,0.99,0],[0.5,1,0],[0.28,0.99,0]];shape=mxgraph.kubernetes.icon2;kubernetesLabel=1;prIcon=api" parent="1" vertex="1">
          <mxGeometry x="612" y="77" width="50" height="48" as="geometry" />
        </mxCell>
        <mxCell id="PNLWlgx4YQinQecf2bti-8" style="edgeStyle=orthogonalEdgeStyle;curved=1;rounded=0;orthogonalLoop=1;jettySize=auto;html=1;exitX=0.995;exitY=0.63;exitDx=0;exitDy=0;exitPerimeter=0;entryX=0.005;entryY=0.364;entryDx=0;entryDy=0;entryPerimeter=0;" parent="1" source="PNLWlgx4YQinQecf2bti-2" target="-R0GGlqBCAgXGfYGxqEZ-5" edge="1">
          <mxGeometry relative="1" as="geometry" />
        </mxCell>
        <mxCell id="tkLdJMVutP-1dgIdCrf8-6" style="edgeStyle=orthogonalEdgeStyle;rounded=0;orthogonalLoop=1;jettySize=auto;html=1;entryX=0.5;entryY=1;entryDx=0;entryDy=0;" parent="1" source="tkLdJMVutP-1dgIdCrf8-1" target="tkLdJMVutP-1dgIdCrf8-5" edge="1">
          <mxGeometry relative="1" as="geometry" />
        </mxCell>
        <mxCell id="tkLdJMVutP-1dgIdCrf8-1" value="Apache Airflow&lt;div&gt;Full Integration Testing&lt;/div&gt;" style="sketch=0;points=[[0,0,0],[0.25,0,0],[0.5,0,0],[0.75,0,0],[1,0,0],[0,1,0],[0.25,1,0],[0.5,1,0],[0.75,1,0],[1,1,0],[0,0.25,0],[0,0.5,0],[0,0.75,0],[1,0.25,0],[1,0.5,0],[1,0.75,0]];outlineConnect=0;fontColor=#232F3E;fillColor=#E7157B;strokeColor=#ffffff;dashed=0;verticalLabelPosition=bottom;verticalAlign=top;align=center;html=1;fontSize=12;fontStyle=0;aspect=fixed;shape=mxgraph.aws4.resourceIcon;resIcon=mxgraph.aws4.managed_workflows_for_apache_airflow;" parent="1" vertex="1">
          <mxGeometry x="471.5" y="697" width="78" height="78" as="geometry" />
        </mxCell>
        <mxCell id="rkZaWcdLS_Vwg1QnGu6E-1" value="daas_py_web" style="aspect=fixed;sketch=0;html=1;dashed=0;whitespace=wrap;verticalLabelPosition=bottom;verticalAlign=top;fillColor=#2875E2;strokeColor=#ffffff;points=[[0.005,0.63,0],[0.1,0.2,0],[0.9,0.2,0],[0.5,0,0],[0.995,0.63,0],[0.72,0.99,0],[0.5,1,0],[0.28,0.99,0]];shape=mxgraph.kubernetes.icon2;kubernetesLabel=1;prIcon=pod" vertex="1" parent="1">
          <mxGeometry x="939" y="274" width="50" height="48" as="geometry" />
        </mxCell>
        <mxCell id="rkZaWcdLS_Vwg1QnGu6E-2" style="edgeStyle=orthogonalEdgeStyle;rounded=0;orthogonalLoop=1;jettySize=auto;html=1;entryX=0.995;entryY=0.63;entryDx=0;entryDy=0;entryPerimeter=0;curved=1;" edge="1" parent="1" source="Nkm34f7J-GyClLQroTZa-5" target="rkZaWcdLS_Vwg1QnGu6E-1">
          <mxGeometry relative="1" as="geometry" />
        </mxCell>
        <mxCell id="rkZaWcdLS_Vwg1QnGu6E-5" style="edgeStyle=orthogonalEdgeStyle;rounded=0;orthogonalLoop=1;jettySize=auto;html=1;exitX=0.005;exitY=0.63;exitDx=0;exitDy=0;exitPerimeter=0;entryX=0.5;entryY=1;entryDx=0;entryDy=0;curved=1;startArrow=classic;startFill=1;endArrow=classic;endFill=1;" edge="1" parent="1" source="rkZaWcdLS_Vwg1QnGu6E-3" target="7do6RsEbsn7JwfB-bVch-11">
          <mxGeometry relative="1" as="geometry" />
        </mxCell>
        <mxCell id="rkZaWcdLS_Vwg1QnGu6E-3" value="daas_py_api (user)" style="aspect=fixed;sketch=0;html=1;dashed=0;whitespace=wrap;verticalLabelPosition=bottom;verticalAlign=top;fillColor=#2875E2;strokeColor=#ffffff;points=[[0.005,0.63,0],[0.1,0.2,0],[0.9,0.2,0],[0.5,0,0],[0.995,0.63,0],[0.72,0.99,0],[0.5,1,0],[0.28,0.99,0]];shape=mxgraph.kubernetes.icon2;kubernetesLabel=1;prIcon=api" vertex="1" parent="1">
          <mxGeometry x="612" y="349" width="50" height="48" as="geometry" />
        </mxCell>
        <mxCell id="rkZaWcdLS_Vwg1QnGu6E-6" style="edgeStyle=orthogonalEdgeStyle;rounded=0;orthogonalLoop=1;jettySize=auto;html=1;exitX=0.005;exitY=0.63;exitDx=0;exitDy=0;exitPerimeter=0;curved=1;startArrow=classic;startFill=1;endArrow=classic;endFill=1;" edge="1" parent="1" source="rkZaWcdLS_Vwg1QnGu6E-4" target="7do6RsEbsn7JwfB-bVch-11">
          <mxGeometry relative="1" as="geometry" />
        </mxCell>
        <mxCell id="rkZaWcdLS_Vwg1QnGu6E-4" value="daas_py_api (userfacility)" style="aspect=fixed;sketch=0;html=1;dashed=0;whitespace=wrap;verticalLabelPosition=bottom;verticalAlign=top;fillColor=#2875E2;strokeColor=#ffffff;points=[[0.005,0.63,0],[0.1,0.2,0],[0.9,0.2,0],[0.5,0,0],[0.995,0.63,0],[0.72,0.99,0],[0.5,1,0],[0.28,0.99,0]];shape=mxgraph.kubernetes.icon2;kubernetesLabel=1;prIcon=api" vertex="1" parent="1">
          <mxGeometry x="612" y="421" width="50" height="48" as="geometry" />
        </mxCell>
      </root>
    </mxGraphModel>
  </diagram>
</mxfile>
